<svg width="22" height="22" viewBox="0 0 22 22" fill="none" xmlns="http://www.w3.org/2000/svg">
<path d="M5.16588 3.60947L5.2163 3.65576L11.445 9.88497L17.4446 3.88538C17.6121 3.71629 17.8388 3.61895 18.0767 3.61396C18.3146 3.60896 18.5452 3.69669 18.7196 3.85861C18.894 4.02053 18.9986 4.24393 19.0113 4.48158C19.024 4.71923 18.9437 4.95249 18.7875 5.13205L18.7417 5.18247L12.7412 11.1811L18.7413 17.1807C18.9105 17.3481 19.008 17.5748 19.0132 17.8128C19.0183 18.0508 18.9306 18.2814 18.7687 18.4559C18.6068 18.6305 18.3834 18.7352 18.1457 18.7479C17.908 18.7606 17.6746 18.6803 17.495 18.5241L17.4446 18.4773L11.445 12.4778L5.2163 18.7074C5.04859 18.8752 4.82237 18.9714 4.5852 18.9758C4.34803 18.9803 4.11838 18.8926 3.9445 18.7312C3.77062 18.5699 3.66606 18.3474 3.6528 18.1106C3.63954 17.8737 3.71861 17.641 3.87338 17.4612L3.91967 17.4108L10.1489 11.1811L3.92013 4.95238C3.75355 4.78446 3.65833 4.55866 3.65437 4.32216C3.65041 4.08567 3.73801 3.8568 3.89887 3.68339C4.05973 3.50999 4.28139 3.40547 4.51751 3.39169C4.75364 3.37792 4.98595 3.45594 5.16588 3.60947Z" fill="white"/>
</svg>
