<svg width="18" height="18" viewBox="0 0 18 18" fill="none" xmlns="http://www.w3.org/2000/svg">
<path d="M16.2989 0.0598987L0.927628 4.78781C-0.141988 5.11687 -0.336521 6.54684 0.606459 7.14971L5.14798 10.0529C5.38415 10.2038 5.66241 10.2753 5.94208 10.2567C6.22174 10.2382 6.48815 10.1307 6.70235 9.94994L12.3706 5.16677C12.6779 4.9075 13.0926 5.32183 12.8333 5.62942L8.0505 11.2987C7.86977 11.5129 7.7623 11.7793 7.74384 12.0589C7.72537 12.3385 7.79687 12.6167 7.94787 12.8528L10.8504 17.3938C11.4529 18.3364 12.8832 18.1419 13.2123 17.0726L17.9401 1.70145C18.2499 0.693718 17.3063 -0.249905 16.2989 0.0598987Z" fill="#2491FF"/>
</svg>
