<svg width="15" height="15" viewBox="0 0 15 15" fill="none" xmlns="http://www.w3.org/2000/svg">
<path d="M2.08083 10.4706C3.15225 12.4334 5.22573 13.7059 7.5368 13.7059C10.6717 13.7059 13.3051 11.3726 13.6984 8.2945C13.7437 7.94003 14.0681 7.68935 14.4229 7.73459C14.7777 7.77985 15.0287 8.1039 14.9834 8.45838C14.5077 12.1807 11.3257 15 7.5368 15C4.97891 15 2.66183 13.7101 1.29539 11.6706V13.3676C1.29539 13.725 1.0054 14.0147 0.647694 14.0147C0.28999 14.0147 0 13.725 0 13.3676V9.82353C0 9.46618 0.28999 9.17647 0.647694 9.17647H4.19529C4.55299 9.17647 4.84298 9.46618 4.84298 9.82353C4.84298 10.1809 4.55299 10.4706 4.19529 10.4706H2.08083ZM12.9192 4.52941C11.8477 2.56656 9.77427 1.29412 7.4632 1.29412C4.32832 1.29412 1.69493 3.62735 1.30158 6.7055C1.25629 7.05997 0.931928 7.31065 0.577095 7.26541C0.222262 7.22015 -0.0286752 6.8961 0.016634 6.54162C0.492277 2.81932 3.67429 0 7.4632 0C10.0211 0 12.3382 1.28993 13.7046 3.32941V1.63235C13.7046 1.275 13.9946 0.985294 14.3523 0.985294C14.71 0.985294 15 1.275 15 1.63235V5.17647C15 5.53382 14.71 5.82353 14.3523 5.82353H10.8047C10.447 5.82353 10.157 5.53382 10.157 5.17647C10.157 4.81912 10.447 4.52941 10.8047 4.52941H12.9192Z" fill="#949494"/>
</svg>
